<mxfile host="app.diagrams.net" modified="2023-06-09T06:46:25.008Z" agent="Mozilla/5.0 (Windows NT 10.0; Win64; x64) AppleWebKit/537.36 (KHTML, like Gecko) Chrome/113.0.0.0 Safari/537.36" version="21.3.7" etag="Eval81NRSojX0mE72lHn" type="github">
  <diagram name="페이지-1" id="cwY6aQvSo9AO2WxUNY1f">
    <mxGraphModel>
      <root>
        <mxCell id="0" />
        <mxCell id="1" parent="0" />
      </root>
    </mxGraphModel>
  </diagram>
</mxfile>
